<svg width="253" height="79" viewBox="0 0 253 79" fill="none" xmlns="http://www.w3.org/2000/svg">
	<path
		d="M11.2074 53.3438C11.1278 52.5994 10.7926 52.0199 10.2017 51.6051C9.61648 51.1903 8.85511 50.983 7.91761 50.983C7.25852 50.983 6.69318 51.0824 6.22159 51.2812C5.75 51.4801 5.3892 51.75 5.1392 52.0909C4.8892 52.4318 4.76136 52.821 4.75568 53.2585C4.75568 53.6222 4.83807 53.9375 5.00284 54.2045C5.1733 54.4716 5.40341 54.6989 5.69318 54.8864C5.98295 55.0682 6.30398 55.2216 6.65625 55.3466C7.00852 55.4716 7.36364 55.5767 7.72159 55.6619L9.35795 56.071C10.017 56.2244 10.6506 56.4318 11.2585 56.6932C11.8722 56.9545 12.4205 57.2841 12.9034 57.6818C13.392 58.0795 13.7784 58.5597 14.0625 59.1222C14.3466 59.6847 14.4886 60.3437 14.4886 61.0994C14.4886 62.1222 14.2273 63.0227 13.7045 63.8011C13.1818 64.5739 12.4261 65.179 11.4375 65.6165C10.4545 66.0483 9.2642 66.2642 7.86648 66.2642C6.50852 66.2642 5.32955 66.054 4.32955 65.6335C3.33523 65.2131 2.55682 64.5994 1.99432 63.7926C1.4375 62.9858 1.13636 62.0028 1.09091 60.8438H4.2017C4.24716 61.4517 4.43466 61.9574 4.7642 62.3608C5.09375 62.7642 5.52273 63.0653 6.05114 63.2642C6.58523 63.4631 7.18182 63.5625 7.84091 63.5625C8.52841 63.5625 9.13068 63.4602 9.64773 63.2557C10.1705 63.0455 10.5795 62.7557 10.875 62.3864C11.1705 62.0114 11.321 61.5739 11.3267 61.0739C11.321 60.6193 11.1875 60.2443 10.9261 59.9489C10.6648 59.6477 10.2983 59.3977 9.8267 59.1989C9.3608 58.9943 8.81534 58.8125 8.19034 58.6534L6.20455 58.142C4.76705 57.7727 3.63068 57.2131 2.79545 56.4631C1.96591 55.7074 1.55114 54.7045 1.55114 53.4545C1.55114 52.4261 1.82955 51.5256 2.38636 50.7528C2.94886 49.9801 3.71307 49.3807 4.67898 48.9545C5.64489 48.5227 6.73864 48.3068 7.96023 48.3068C9.19886 48.3068 10.2841 48.5227 11.2159 48.9545C12.1534 49.3807 12.8892 49.9744 13.4233 50.7358C13.9574 51.4915 14.233 52.3608 14.25 53.3438H11.2074ZM16.9312 66V52.9091H20.0164V66H16.9312ZM18.4823 51.0511C17.9937 51.0511 17.5732 50.8892 17.2209 50.5653C16.8687 50.2358 16.6925 49.8409 16.6925 49.3807C16.6925 48.9148 16.8687 48.5199 17.2209 48.196C17.5732 47.8665 17.9937 47.7017 18.4823 47.7017C18.9766 47.7017 19.3971 47.8665 19.7437 48.196C20.0959 48.5199 20.2721 48.9148 20.2721 49.3807C20.2721 49.8409 20.0959 50.2358 19.7437 50.5653C19.3971 50.8892 18.9766 51.0511 18.4823 51.0511ZM28.6422 71.1818C27.5342 71.1818 26.5825 71.0313 25.787 70.7301C24.9916 70.4347 24.3524 70.0369 23.8694 69.5369C23.3865 69.0369 23.0513 68.483 22.8638 67.875L25.6422 67.2017C25.7672 67.4574 25.949 67.7102 26.1876 67.9602C26.4263 68.2159 26.7473 68.4261 27.1507 68.5909C27.5598 68.7614 28.074 68.8466 28.6933 68.8466C29.5683 68.8466 30.2927 68.6335 30.8666 68.2074C31.4405 67.7869 31.7274 67.0938 31.7274 66.1278V63.6477H31.574C31.4149 63.9659 31.1819 64.2926 30.8751 64.6278C30.574 64.9631 30.1734 65.2443 29.6734 65.4716C29.1791 65.6989 28.5569 65.8125 27.8069 65.8125C26.8013 65.8125 25.8893 65.5767 25.0711 65.1051C24.2586 64.6278 23.6109 63.9176 23.128 62.9744C22.6507 62.0256 22.412 60.8381 22.412 59.4119C22.412 57.9744 22.6507 56.7614 23.128 55.7727C23.6109 54.7784 24.2615 54.0256 25.0797 53.5142C25.8978 52.9972 26.8098 52.7386 27.8155 52.7386C28.5825 52.7386 29.2132 52.8693 29.7075 53.1307C30.2075 53.3864 30.6052 53.696 30.9007 54.0597C31.1961 54.4176 31.4206 54.7557 31.574 55.0739H31.7444V52.9091H34.787V66.2131C34.787 67.3324 34.52 68.2585 33.9859 68.9915C33.4518 69.7244 32.7217 70.2727 31.7956 70.6364C30.8694 71 29.8183 71.1818 28.6422 71.1818ZM28.6677 63.392C29.3211 63.392 29.878 63.233 30.3382 62.9148C30.7984 62.5966 31.1478 62.1392 31.3865 61.5426C31.6251 60.946 31.7444 60.2301 31.7444 59.3949C31.7444 58.571 31.6251 57.8494 31.3865 57.2301C31.1535 56.6108 30.8069 56.1307 30.3467 55.7898C29.8922 55.4432 29.3325 55.2699 28.6677 55.2699C27.9802 55.2699 27.4064 55.4489 26.9461 55.8068C26.4859 56.1648 26.1393 56.6562 25.9064 57.2812C25.6734 57.9006 25.5569 58.6051 25.5569 59.3949C25.5569 60.196 25.6734 60.8977 25.9064 61.5C26.145 62.0966 26.4944 62.5625 26.9547 62.8977C27.4206 63.2273 27.9916 63.392 28.6677 63.392ZM40.7942 58.3295V66H37.709V52.9091H40.6578V55.1335H40.8112C41.1124 54.4006 41.5925 53.8182 42.2516 53.3864C42.9164 52.9545 43.7374 52.7386 44.7147 52.7386C45.6181 52.7386 46.405 52.9318 47.0755 53.3182C47.7516 53.7045 48.2743 54.2642 48.6436 54.9972C49.0186 55.7301 49.2033 56.6193 49.1976 57.6648V66H46.1124V58.142C46.1124 57.267 45.8851 56.5824 45.4306 56.0881C44.9817 55.5937 44.3595 55.3466 43.5641 55.3466C43.0243 55.3466 42.5442 55.4659 42.1237 55.7045C41.709 55.9375 41.3823 56.2756 41.1436 56.7188C40.9107 57.1619 40.7942 57.6989 40.7942 58.3295ZM57.8071 66V52.9091H60.8923V66H57.8071ZM59.3582 51.0511C58.8696 51.0511 58.4491 50.8892 58.0969 50.5653C57.7446 50.2358 57.5685 49.8409 57.5685 49.3807C57.5685 48.9148 57.7446 48.5199 58.0969 48.196C58.4491 47.8665 58.8696 47.7017 59.3582 47.7017C59.8526 47.7017 60.273 47.8665 60.6196 48.196C60.9719 48.5199 61.148 48.9148 61.148 49.3807C61.148 49.8409 60.9719 50.2358 60.6196 50.5653C60.273 50.8892 59.8526 51.0511 59.3582 51.0511ZM66.9101 58.3295V66H63.8249V52.9091H66.7738V55.1335H66.9272C67.2283 54.4006 67.7084 53.8182 68.3675 53.3864C69.0323 52.9545 69.8533 52.7386 70.8306 52.7386C71.734 52.7386 72.5209 52.9318 73.1914 53.3182C73.8675 53.7045 74.3903 54.2642 74.7596 54.9972C75.1346 55.7301 75.3192 56.6193 75.3136 57.6648V66H72.2283V58.142C72.2283 57.267 72.0011 56.5824 71.5465 56.0881C71.0976 55.5937 70.4755 55.3466 69.68 55.3466C69.1403 55.3466 68.6601 55.4659 68.2397 55.7045C67.8249 55.9375 67.4982 56.2756 67.2596 56.7188C67.0266 57.1619 66.9101 57.6989 66.9101 58.3295ZM90.46 52.9091V55.2955H82.9344V52.9091H90.46ZM84.7924 49.7727H87.8776V62.0625C87.8776 62.4773 87.9401 62.7955 88.0651 63.017C88.1958 63.233 88.3662 63.3807 88.5765 63.4602C88.7867 63.5398 89.0196 63.5795 89.2753 63.5795C89.4685 63.5795 89.6446 63.5653 89.8037 63.5369C89.9685 63.5085 90.0935 63.483 90.1787 63.4602L90.6986 65.8722C90.5338 65.929 90.298 65.9915 89.9912 66.0597C89.6901 66.1278 89.3208 66.1676 88.8833 66.179C88.1105 66.2017 87.4145 66.0852 86.7952 65.8295C86.1759 65.5682 85.6844 65.1648 85.3208 64.6193C84.9628 64.0739 84.7867 63.392 84.7924 62.5739V49.7727ZM98.3698 66.2557C97.0914 66.2557 95.9835 65.9744 95.046 65.4119C94.1085 64.8494 93.3812 64.0625 92.8641 63.0511C92.3528 62.0398 92.0971 60.858 92.0971 59.5057C92.0971 58.1534 92.3528 56.9687 92.8641 55.9517C93.3812 54.9347 94.1085 54.1449 95.046 53.5824C95.9835 53.0199 97.0914 52.7386 98.3698 52.7386C99.6482 52.7386 100.756 53.0199 101.694 53.5824C102.631 54.1449 103.356 54.9347 103.867 55.9517C104.384 56.9687 104.643 58.1534 104.643 59.5057C104.643 60.858 104.384 62.0398 103.867 63.0511C103.356 64.0625 102.631 64.8494 101.694 65.4119C100.756 65.9744 99.6482 66.2557 98.3698 66.2557ZM98.3869 63.7841C99.0801 63.7841 99.6596 63.5937 100.126 63.2131C100.591 62.8267 100.938 62.3097 101.165 61.6619C101.398 61.0142 101.515 60.2926 101.515 59.4972C101.515 58.696 101.398 57.9716 101.165 57.3239C100.938 56.6705 100.591 56.1506 100.126 55.7642C99.6596 55.3778 99.0801 55.1847 98.3869 55.1847C97.6766 55.1847 97.0857 55.3778 96.6141 55.7642C96.1482 56.1506 95.7988 56.6705 95.5658 57.3239C95.3386 57.9716 95.2249 58.696 95.2249 59.4972C95.2249 60.2926 95.3386 61.0142 95.5658 61.6619C95.7988 62.3097 96.1482 62.8267 96.6141 63.2131C97.0857 63.5937 97.6766 63.7841 98.3869 63.7841Z"
		fill="#56565C"
	/>
	<path
		d="M170.897 70.9311C168.549 70.1365 166.483 68.6638 164.957 66.6963C163.523 64.7601 162.647 62.4625 162.427 60.0577C162.132 57.6625 162.531 55.2337 163.577 53.0647C164.7 50.8447 166.443 49.0045 168.59 47.7696C171.201 46.2694 174.108 45.3649 177.105 45.1196C181.288 44.6681 184.855 45.1791 187.806 46.6524L188.641 54.3821C187.514 53.7836 186.307 53.3534 185.057 53.105C183.658 52.8204 182.224 52.7592 180.807 52.9238C178.213 53.2037 176.235 53.9007 174.873 55.0148C174.254 55.4568 173.762 56.0563 173.448 56.7525C173.134 57.4486 173.009 58.2165 173.085 58.978C173.161 59.7396 173.436 60.4676 173.881 61.0879C174.327 61.7083 174.927 62.199 175.621 62.51C177.148 63.3245 179.263 63.5857 181.968 63.2938C183.365 63.1465 184.732 62.7936 186.026 62.2464C187.208 61.7619 188.326 61.1315 189.353 60.3696L190.16 67.8402C187.132 70.0898 183.545 71.4514 179.795 71.7748C176.805 72.181 173.761 71.8924 170.897 70.9311Z"
		fill="#2D2D31"
	/>
	<path
		d="M198.093 67.7321C196.543 67.2116 195.173 66.2544 194.144 64.974C193.169 63.7168 192.57 62.2057 192.418 60.6185C192.223 59.055 192.488 57.4689 193.182 56.0581C193.922 54.6222 195.055 53.4307 196.447 52.6248C199.879 50.7683 203.897 50.3347 207.646 51.4161C209.172 51.9021 210.527 52.8196 211.551 54.0595C212.525 55.2954 213.118 56.7907 213.259 58.3612C213.449 59.9426 213.191 61.5453 212.514 62.9832C211.792 64.4536 210.664 65.6813 209.264 66.5184C207.582 67.4721 205.724 68.0708 203.803 68.2781C201.883 68.4854 199.94 68.2969 198.092 67.7242L198.093 67.7321ZM205.866 61.9495C206.165 61.5617 206.383 61.1162 206.505 60.6403C206.628 60.1644 206.652 59.668 206.577 59.1818C206.549 58.6953 206.42 58.2199 206.199 57.7859C205.978 57.352 205.67 56.969 205.295 56.6613C204.891 56.3615 204.432 56.1464 203.945 56.0288C203.457 55.9111 202.952 55.8933 202.458 55.9764C201.958 56.0037 201.469 56.1304 201.018 56.3491C200.567 56.5678 200.164 56.8743 199.832 57.251C199.532 57.6323 199.314 58.0723 199.192 58.5431C199.069 59.014 199.045 59.5056 199.12 59.9867C199.151 60.4773 199.281 60.9566 199.501 61.3954C199.722 61.8342 200.028 62.2234 200.403 62.5391C200.805 62.8433 201.264 63.0628 201.751 63.1846C202.239 63.3063 202.746 63.3277 203.242 63.2476C203.745 63.223 204.236 63.0952 204.687 62.872C205.139 62.6487 205.54 62.3348 205.866 61.9495Z"
		fill="#2D2D31"
	/>
	<path
		d="M228.859 49.023L229.502 54.9801C228.633 54.5774 227.667 54.4395 226.723 54.5834C225.268 54.7405 224.192 55.3103 223.508 56.2838C222.823 57.2572 222.582 58.6804 222.784 60.5533L223.331 65.6211L216.639 66.3434L214.9 50.2311L221.456 49.5235L222.008 54.6385C222.17 52.7264 222.609 51.2818 223.324 50.305C223.671 49.8253 224.116 49.4271 224.63 49.138C225.144 48.8489 225.715 48.6757 226.302 48.6303C227.173 48.5119 228.061 48.6482 228.859 49.023Z"
		fill="#2D2D31"
	/>
	<path
		d="M250.66 42.6099L252.8 62.4403L246.108 63.1627L245.718 59.5428C245.352 60.886 244.563 62.0721 243.469 62.9221C242.255 63.8049 240.824 64.334 239.331 64.4514C237.934 64.6354 236.514 64.3967 235.25 63.7654C234.025 63.1394 232.999 62.1782 232.29 60.9921C231.515 59.682 231.041 58.2138 230.903 56.6956C230.689 55.1292 230.853 53.5346 231.38 52.0467C231.865 50.6837 232.723 49.4873 233.854 48.5953C235.019 47.6989 236.411 47.1526 237.872 47.0192C241.056 46.6756 243.346 47.8401 244.743 50.5129L243.968 43.3322L250.66 42.6099ZM244.522 57.6816C244.826 57.3063 245.05 56.871 245.178 56.4035C245.306 55.936 245.337 55.4465 245.267 54.9661C245.231 54.4968 245.097 54.0403 244.873 53.6267C244.65 53.2131 244.342 52.8518 243.97 52.5666C243.136 52.0207 242.142 51.7809 241.155 51.8874C240.168 51.994 239.247 52.4405 238.55 53.1516C238.249 53.5169 238.028 53.9421 237.901 54.3995C237.774 54.8569 237.745 55.3363 237.814 55.8064C237.848 56.2848 237.981 56.7508 238.205 57.1743C238.429 57.5979 238.739 57.9695 239.113 58.2654C239.508 58.5627 239.958 58.7777 240.436 58.8977C240.914 59.0176 241.411 59.0402 241.897 58.964C242.398 58.9381 242.888 58.8112 243.339 58.5909C243.789 58.3707 244.192 58.0615 244.522 57.6816Z"
		fill="#2D2D31"
	/>
	<path
		opacity="0.2"
		d="M114.984 48.5652H125.698C128.281 48.5652 130.466 48.9715 132.253 49.7841C133.898 50.4816 135.295 51.6655 136.26 53.1796C137.163 54.6755 137.626 56.3993 137.595 58.1502C137.614 59.9092 137.134 61.637 136.209 63.1287C135.178 64.7046 133.703 65.9339 131.974 66.6588C130.08 67.5294 127.731 67.9634 124.929 67.9608H114.984V48.5652ZM124.819 63.0258C126.559 63.0258 127.896 62.5879 128.83 61.712C129.304 61.2488 129.674 60.689 129.916 60.0699C130.157 59.4509 130.265 58.7869 130.232 58.1225C130.261 57.5058 130.165 56.8895 129.951 56.3112C129.736 55.7329 129.407 55.2047 128.983 54.7587C128.146 53.9197 126.886 53.4989 125.204 53.4962H121.852V63.0258H124.819Z"
		fill="#2D2D31"
	/>
	<path
		opacity="0.2"
		d="M153.639 67.9292C152.226 67.572 150.873 67.0023 149.628 66.2393V61.6407C150.715 62.4381 151.94 63.0258 153.239 63.3741C154.66 63.8114 156.137 64.0393 157.623 64.0508C158.136 64.0784 158.648 63.9892 159.122 63.7896C159.46 63.6155 159.629 63.3939 159.629 63.1644C159.632 63.0361 159.61 62.9085 159.562 62.7894C159.515 62.6702 159.444 62.5622 159.354 62.4718C159.04 62.2287 158.672 62.067 158.282 62.0009L154.985 61.2529C153.096 60.8097 151.755 60.1963 150.963 59.4127C150.565 59.0079 150.254 58.5241 150.052 57.9921C149.849 57.46 149.758 56.8912 149.785 56.3219C149.772 55.2901 150.145 54.2911 150.829 53.524C151.641 52.6584 152.664 52.0236 153.796 51.6837C155.253 51.222 156.775 51.0014 158.302 51.0307C159.727 51.0173 161.149 51.1848 162.533 51.5294C163.651 51.7965 164.724 52.2257 165.72 52.8037V57.1569C164.786 56.6107 163.783 56.1966 162.737 55.9261C161.604 55.6199 160.436 55.4655 159.264 55.4671C157.542 55.4671 156.681 55.7626 156.681 56.3535C156.678 56.4852 156.714 56.6147 156.784 56.7259C156.853 56.8371 156.954 56.9251 157.073 56.9788C157.544 57.1805 158.037 57.324 158.541 57.4062L161.289 57.9049C163.073 58.2215 164.404 58.7755 165.28 59.567C166.157 60.3585 166.596 61.5167 166.599 63.0417C166.613 63.8436 166.419 64.6352 166.035 65.3378C165.651 66.0404 165.092 66.6295 164.413 67.0466C162.966 68.0255 160.9 68.5135 158.216 68.5109C156.672 68.5133 155.134 68.3178 153.639 67.9292Z"
		fill="#2D2D31"
	/>
	<path
		opacity="0.2"
		d="M143.27 53.4764C145.123 53.4764 146.626 52.1157 146.626 50.4371C146.626 48.7585 145.123 47.3978 143.27 47.3978C141.417 47.3978 139.914 48.7585 139.914 50.4371C139.914 52.1157 141.417 53.4764 143.27 53.4764Z"
		fill="#2D2D31"
	/>
	<path
		opacity="0.2"
		d="M139.91 55.57C140.973 56.0205 142.115 56.2525 143.268 56.2525C144.421 56.2525 145.563 56.0205 146.626 55.57V68.0439H139.91V55.57Z"
		fill="#2D2D31"
	/>
	<path
		fill-rule="evenodd"
		clip-rule="evenodd"
		d="M190.104 36.6501C193.586 38.2376 197.262 39.3638 201.038 40C201.555 39.0801 202.023 38.1338 202.439 37.1648C206.461 37.7684 210.552 37.7684 214.574 37.1648C214.99 38.1337 215.458 39.0801 215.974 40C219.753 39.3585 223.431 38.2296 226.917 36.6418C233.837 26.4467 235.713 16.5048 234.775 6.70404C230.722 3.72247 226.187 1.45496 221.364 0C220.279 1.45422 219.318 2.99695 218.492 4.61188C220.06 5.19507 221.574 5.91461 223.015 6.76215C222.636 7.03613 222.265 7.31836 221.906 7.59235C217.712 5.6283 213.135 4.60992 208.5 4.60992C203.865 4.60992 199.288 5.6283 195.094 7.59235C194.731 7.29761 194.36 7.01538 193.985 6.76215C195.429 5.91321 196.945 5.19232 198.516 4.60773C197.692 2.99353 196.731 1.45209 195.644 0C190.818 1.4491 186.278 3.71558 182.225 6.69989C181.125 18.0656 184.105 27.9161 190.104 36.6501ZM217.304 12.7314C219.918 12.7314 222.077 15.0934 222.077 17.9991C222.077 18.946 221.856 19.8372 221.465 20.6086C220.253 19.6039 218.697 19 217 19C215.501 19 214.113 19.4709 212.974 20.2729C212.681 19.583 212.523 18.8115 212.535 17.9991C212.581 15.0934 214.64 12.7314 217.304 12.7314ZM199.696 12.7314C202.314 12.7314 204.465 15.0934 204.465 17.9991C204.465 18.8078 204.303 19.5759 204.013 20.2635C202.876 19.4672 201.493 19 200 19C198.299 19 196.739 19.6069 195.526 20.6161C195.133 19.843 194.916 18.949 194.931 17.9991C194.977 15.0934 197.032 12.7314 199.696 12.7314ZM201.292 26C201.1 25.3567 201 24.6835 201 24H203H213H215C215 24.6835 214.9 25.3567 214.708 26C214.379 27.1041 213.779 28.1203 212.95 28.9497C211.637 30.2625 209.857 31 208 31C206.143 31 204.363 30.2625 203.05 28.9497C202.221 28.1203 201.621 27.1041 201.292 26Z"
		fill="#FD366E"
	/>
</svg>
