<svg width="92" height="74" viewBox="0 0 92 74" fill="none" xmlns="http://www.w3.org/2000/svg">
	<path
		d="M9.89666 70.9311C7.54876 70.1365 5.48324 68.6638 3.95712 66.6963C2.52268 64.7601 1.64706 62.4625 1.42722 60.0577C1.13222 57.6625 1.5314 55.2337 2.57651 53.0647C3.70039 50.8447 5.44277 49.0045 7.59019 47.7696C10.2013 46.2694 13.1078 45.3649 16.1051 45.1196C20.2876 44.6681 23.8547 45.1791 26.8063 46.6524L27.6406 54.3821C26.5136 53.7836 25.3066 53.3534 24.0573 53.105C22.6582 52.8204 21.2237 52.7592 19.8066 52.9238C17.2134 53.2037 15.2355 53.9007 13.8728 55.0148C13.2539 55.4568 12.7624 56.0563 12.4484 56.7525C12.1344 57.4486 12.009 58.2165 12.0851 58.978C12.1611 59.7396 12.4359 60.4676 12.8814 61.0879C13.3269 61.7083 13.9272 62.199 14.6213 62.51C16.1478 63.3245 18.2634 63.5857 20.9681 63.2938C22.3645 63.1465 23.7317 62.7936 25.0259 62.2464C26.2079 61.7619 27.3256 61.1315 28.3533 60.3696L29.1597 67.8402C26.1318 70.0898 22.5449 71.4514 18.7947 71.7748C15.8049 72.181 12.7613 71.8924 9.89666 70.9311Z"
		fill="#2D2D31"
	/>
	<path
		d="M37.0932 67.7321C35.543 67.2116 34.1725 66.2544 33.1439 64.974C32.1691 63.7168 31.5705 62.2057 31.4185 60.6185C31.2229 59.055 31.4883 57.4689 32.1816 56.0581C32.9218 54.6222 34.0548 53.4307 35.4468 52.6248C38.8792 50.7683 42.8965 50.3347 46.646 51.4161C48.1715 51.9021 49.5271 52.8196 50.5512 54.0595C51.5245 55.2954 52.1182 56.7907 52.259 58.3612C52.4493 59.9426 52.1911 61.5453 51.5144 62.9832C50.7924 64.4536 49.6637 65.6813 48.2642 66.5184C46.5815 67.4721 44.7236 68.0708 42.8031 68.2781C40.8826 68.4854 38.9397 68.2969 37.0923 67.7242L37.0932 67.7321ZM44.8656 61.9495C45.1652 61.5617 45.3828 61.1162 45.5053 60.6403C45.6277 60.1644 45.6522 59.668 45.5775 59.1818C45.5488 58.6953 45.42 58.2199 45.1991 57.7859C44.9783 57.352 44.6703 56.969 44.2948 56.6613C43.8912 56.3615 43.432 56.1464 42.9446 56.0288C42.4572 55.9111 41.9516 55.8933 41.4576 55.9764C40.9579 56.0037 40.4686 56.1304 40.018 56.3491C39.5673 56.5678 39.1642 56.8743 38.8318 57.251C38.532 57.6323 38.3139 58.0723 38.1915 58.5431C38.069 59.014 38.0448 59.5056 38.1204 59.9867C38.1513 60.4773 38.2808 60.9566 38.5013 61.3954C38.7217 61.8342 39.0284 62.2234 39.4026 62.5391C39.8048 62.8433 40.2636 63.0628 40.7515 63.1846C41.2394 63.3063 41.7464 63.3277 42.2424 63.2476C42.7446 63.223 43.2364 63.0952 43.6875 62.872C44.1386 62.6487 44.5395 62.3348 44.8656 61.9495Z"
		fill="#2D2D31"
	/>
	<path
		d="M67.8587 49.023L68.5017 54.9801C67.6332 54.5774 66.6674 54.4395 65.7231 54.5834C64.2676 54.7405 63.1922 55.3103 62.5078 56.2838C61.8233 57.2572 61.5822 58.6804 61.7843 60.5533L62.3313 65.6211L55.6391 66.3434L53.9 50.2311L60.4557 49.5235L61.0077 54.6385C61.1698 52.7264 61.6087 51.2818 62.3243 50.305C62.6707 49.8253 63.1162 49.4271 63.6302 49.138C64.1442 48.8489 64.7144 48.6757 65.3017 48.6303C66.1733 48.5119 67.0608 48.6482 67.8587 49.023Z"
		fill="#2D2D31"
	/>
	<path
		d="M89.66 42.6099L91.8004 62.4403L85.1082 63.1627L84.7175 59.5428C84.3519 60.886 83.5627 62.0721 82.4689 62.9221C81.2555 63.8049 79.824 64.334 78.3311 64.4514C76.9341 64.6354 75.5137 64.3967 74.2502 63.7654C73.0251 63.1394 71.9991 62.1782 71.2902 60.9921C70.5149 59.682 70.0408 58.2138 69.9027 56.6956C69.689 55.1292 69.8527 53.5346 70.38 52.0467C70.8651 50.6837 71.7226 49.4873 72.8537 48.5953C74.0186 47.6989 75.4114 47.1526 76.872 47.0192C80.0561 46.6756 82.3464 47.8401 83.7429 50.5129L82.9678 43.3322L89.66 42.6099ZM83.5218 57.6816C83.8264 57.3063 84.0499 56.871 84.1782 56.4035C84.3065 55.936 84.3367 55.4465 84.267 54.9661C84.231 54.4968 84.0967 54.0403 83.8732 53.6267C83.6496 53.2131 83.3417 52.8518 82.9698 52.5666C82.1363 52.0207 81.1421 51.7809 80.1548 51.8874C79.1675 51.994 78.2474 52.4405 77.5497 53.1516C77.2489 53.5169 77.0279 53.9421 76.9011 54.3995C76.7743 54.8569 76.7445 55.3363 76.8138 55.8064C76.8481 56.2848 76.9814 56.7508 77.2053 57.1743C77.4292 57.5979 77.7385 57.9695 78.1134 58.2654C78.5082 58.5627 78.9578 58.7777 79.4358 58.8977C79.9137 59.0176 80.4105 59.0402 80.8969 58.964C81.3975 58.9381 81.8878 58.8112 82.3386 58.5909C82.7894 58.3707 83.1918 58.0615 83.5218 57.6816Z"
		fill="#2D2D31"
	/>
	<path
		fill-rule="evenodd"
		clip-rule="evenodd"
		d="M29.104 36.6501C32.5861 38.2376 36.2622 39.3638 40.0383 40C40.555 39.0802 41.0225 38.1338 41.4389 37.1648C45.4612 37.7684 49.5515 37.7684 53.5738 37.1648C53.9904 38.1337 54.4579 39.0801 54.9744 40C58.7529 39.3584 62.4314 38.2295 65.9171 36.6418C72.837 26.4467 74.7129 16.5048 73.7749 6.70403C69.7225 3.72247 65.1866 1.45493 60.3645 0C59.2787 1.45422 58.3179 2.99697 57.4923 4.61187C59.0604 5.19508 60.5739 5.91461 62.0152 6.76214C61.6359 7.03612 61.2649 7.31839 60.9064 7.59236C56.7123 5.6283 52.1348 4.60995 47.5001 4.60995C42.8654 4.60996 38.2878 5.6283 34.0938 7.59237C33.7311 7.29764 33.3601 7.01536 32.9849 6.76215C34.4291 5.91324 35.9454 5.19233 37.5162 4.60772C36.6917 2.99356 35.7308 1.45211 34.6441 3.63656e-06C29.8178 1.4491 25.2785 3.71556 21.2253 6.69988C20.1247 18.0656 23.1053 27.9162 29.104 36.6501ZM56.3042 12.7314C58.9179 12.7314 61.0773 15.0934 61.0773 17.9992C61.0773 18.946 60.856 19.8372 60.4649 20.6086C59.2531 19.6039 57.6971 19 56 19C54.5013 19 53.1127 19.471 51.9739 20.273C51.6807 19.583 51.5225 18.8115 51.5353 17.9992C51.5812 15.0934 53.6405 12.7314 56.3042 12.7314ZM38.696 12.7314C41.3139 12.7314 43.4649 15.0934 43.4649 17.9992C43.4649 18.8078 43.3034 19.576 43.0126 20.2635C41.8764 19.4673 40.4928 19 39 19C37.2987 19 35.7392 19.6069 34.5261 20.6161C34.1333 19.843 33.9162 18.949 33.9312 17.9992C33.9771 15.0934 36.0322 12.7314 38.696 12.7314ZM40.2918 26C40.1 25.3567 40 24.6835 40 24H42H52H54C54 24.6835 53.9 25.3567 53.7082 26C53.379 27.1041 52.7792 28.1203 51.9497 28.9497C50.637 30.2625 48.8565 31 47 31C45.1435 31 43.363 30.2625 42.0503 28.9497C41.2208 28.1203 40.621 27.1041 40.2918 26Z"
		fill="#FD366E"
	/>
</svg>
